<svg width="117" height="16" viewBox="0 0 117 16" fill="none" xmlns="http://www.w3.org/2000/svg">
<path d="M0 4H7.97727L0 12V16H13.9602V12H5.98295L13.9602 4V0H0V4Z" fill="white"/>
<path d="M15.9541 4V12V16H27.92V12H20.6075V10H25.9257V6H20.6075V4H27.92V0H15.9541V4Z" fill="white"/>
<path d="M38.8895 8.66667L34.5684 0H29.915V16H34.5684V8.90889L37.2275 14H37.8916H39.8874H40.5514L42.6639 9.95555L43.2105 8.90889V16H47.8639V0H43.2105L38.8895 8.66667Z" fill="white"/>
<path d="M60.8641 0H52.8129C51.1813 0 49.8584 1.32667 49.8584 2.96296V4V5.58148C49.8584 7.12519 50.8969 8.48074 52.3845 8.87852L59.83 10.8696V12H53.847V10.6667H49.8584V12V13.037C49.8584 14.6733 51.1813 16 52.8129 16H60.8641C62.4957 16 63.8186 14.6733 63.8186 13.037V12V10.4185C63.8186 8.87481 62.7801 7.51926 61.2925 7.12148L53.847 5.13037V4H59.83V5.33333H63.8186V4V2.96296C63.8186 1.32667 62.4957 0 60.8641 0Z" fill="white"/>
<path d="M114.045 0H105.33C103.698 0 102.375 1.32667 102.375 2.96296V4V12V13.037C102.375 14.6733 103.698 16 105.33 16H114.045C115.677 16 117 14.6733 117 13.037V12V4V2.96296C117 1.32667 115.677 0 114.045 0ZM112.347 12H107.028V4H112.347V12Z" fill="#FFC700"/>
<path d="M69.1361 12H65.1475V16H69.1361V12Z" fill="#FFC700"/>
<path d="M81.5454 0H75.1192H70.4658V16H75.1192V11.3333H81.5454C83.1334 11.3333 84.426 10.037 84.426 8.44444V2.88889C84.426 1.2963 83.1334 0 81.5454 0ZM80.4374 7.33333H75.1192V4H80.4374V7.33333Z" fill="#FFC700"/>
<path d="M100.381 8.44444V2.88889C100.381 1.2963 99.0885 0 97.5004 0H91.0743H86.4209V16H91.0743V11.3333H93.0686L96.3925 16H101.046L97.7154 11.3244C99.2037 11.2133 100.381 9.96444 100.381 8.44444ZM91.0743 7.33333V4H96.3925V7.33333H91.0743Z" fill="#FFC700"/>
</svg>
